<svg xmlns="http://www.w3.org/2000/svg" xmlns:xlink="http://www.w3.org/1999/xlink" id="Layer_1" width="520" height="520" x="0" y="0" enable-background="new 0 0 520 520" version="1.1" viewBox="0 0 520 520" xml:space="preserve"><g id="Rectangle_1_1_"><g id="Rectangle_1"><g><rect width="520" height="520" fill="#3D3D3D"/></g></g></g><g><g><path fill="#8AFF00" d="M69.692,460.364c-7.592-2.886-15.072-2.663-22.46,0.658c-7.388,3.32-12.525,8.779-15.405,16.363 c-2.884,7.597-2.663,15.078,0.658,22.47c3.32,7.392,8.766,12.525,16.358,15.41c7.582,2.883,15.072,2.664,22.46-0.657 c7.388-3.321,12.521-8.77,15.405-16.364c2.88-7.584,2.663-15.077-0.658-22.469C82.729,468.383,77.273,463.246,69.692,460.364z"/><path fill="#8AFF00" d="M27.978,241.475c2.88-7.584,2.663-15.077-0.658-22.469c-3.32-7.391-8.776-12.529-16.358-15.411 c-3.68-1.398-7.333-2.06-10.962-1.999v58.903c4.222,0.097,8.414-0.79,12.573-2.659C19.961,254.518,25.094,249.07,27.978,241.475z"/><path fill="#8AFF00" d="M44.375,404.007c2.88-7.585,2.663-15.077-0.658-22.47c-3.32-7.391-8.776-12.529-16.358-15.411 c-7.592-2.885-15.072-2.663-22.46,0.658C3.135,367.577,1.507,368.5,0,369.537v48.069c1.966,1.355,4.119,2.514,6.51,3.423 c7.582,2.881,15.072,2.663,22.46-0.658C36.359,417.049,41.491,411.602,44.375,404.007z"/><path fill="#8AFF00" d="M1.425,434.42c-0.476-0.181-0.95-0.35-1.425-0.506v55.933c1.014-0.338,2.026-0.729,3.036-1.183 c7.389-3.321,12.521-8.77,15.405-16.364c2.88-7.585,2.662-15.078-0.658-22.469C14.463,442.439,9.007,437.301,1.425,434.42z"/><path fill="#8AFF00" d="M1.385,287.299c-0.426-0.947-0.889-1.855-1.385-2.729v29.506c0.764-1.356,1.462-2.776,2.043-4.307 C4.923,302.184,4.706,294.691,1.385,287.299z"/><path fill="#8AFF00" d="M32.445,352.734c7.582,2.883,15.072,2.664,22.46-0.657c7.388-3.321,12.521-8.769,15.405-16.364 c2.88-7.584,2.663-15.076-0.658-22.469c-3.321-7.393-8.776-12.529-16.358-15.411c-7.592-2.886-15.072-2.663-22.46,0.658 s-12.524,8.78-15.405,16.364c-2.884,7.596-2.663,15.078,0.658,22.469C19.407,344.716,24.853,349.85,32.445,352.734z"/><path fill="#8AFF00" d="M110.249,147.855c7.582,2.882,15.072,2.664,22.46-0.658c7.388-3.321,12.521-8.77,15.405-16.364 c2.88-7.584,2.663-15.077-0.658-22.469c-3.32-7.392-8.776-12.529-16.358-15.411c-7.592-2.885-15.072-2.663-22.46,0.658 c-7.388,3.321-12.524,8.78-15.405,16.364c-2.884,7.596-2.663,15.078,0.658,22.47C97.211,139.836,102.657,144.971,110.249,147.855z"/><path fill="#8AFF00" d="M315.05,225.69c7.581,2.881,15.071,2.663,22.46-0.658c7.39-3.321,12.521-8.771,15.405-16.364 c2.88-7.585,2.662-15.078-0.658-22.469c-3.32-7.392-8.775-12.53-16.357-15.411c-7.593-2.886-15.071-2.664-22.46,0.657 c-7.39,3.322-12.524,8.78-15.405,16.365c-2.884,7.595-2.662,15.077,0.658,22.469C302.012,217.671,307.457,222.805,315.05,225.69z"/><path fill="#8AFF00" d="M0,175.408c3.343,7.053,8.675,11.993,16.048,14.796c7.582,2.882,15.072,2.664,22.46-0.658 c7.389-3.321,12.521-8.769,15.405-16.364c2.88-7.584,2.662-15.077-0.658-22.469c-3.32-7.392-8.776-12.529-16.358-15.411 c-7.592-2.886-15.072-2.663-22.46,0.658C7.802,138.942,3,143.663,0,150.084V175.408z"/><path fill="#8AFF00" d="M84.314,216.149c7.582,2.881,15.072,2.663,22.46-0.658c7.388-3.321,12.521-8.77,15.405-16.364 c2.88-7.585,2.663-15.078-0.658-22.47c-3.32-7.391-8.776-12.529-16.358-15.41c-7.592-2.886-15.072-2.664-22.46,0.657 c-7.388,3.322-12.525,8.78-15.405,16.365c-2.884,7.595-2.662,15.077,0.658,22.469C71.276,208.129,76.722,213.264,84.314,216.149z"/><path fill="#8AFF00" d="M246.782,199.745c7.582,2.882,15.071,2.664,22.461-0.658c7.388-3.321,12.521-8.769,15.405-16.364 c2.879-7.584,2.662-15.077-0.658-22.469s-8.776-12.529-16.358-15.411c-7.592-2.885-15.071-2.663-22.46,0.658 c-7.389,3.321-12.524,8.779-15.405,16.364c-2.884,7.596-2.662,15.078,0.658,22.469C233.745,191.726,239.19,196.86,246.782,199.745 z"/><path fill="#8AFF00" d="M95.587,244.951c-3.32-7.392-8.776-12.53-16.358-15.411c-7.592-2.886-15.072-2.663-22.46,0.658 c-7.388,3.321-12.524,8.779-15.405,16.364c-2.884,7.595-2.662,15.079,0.658,22.469c3.32,7.392,8.766,12.525,16.358,15.41 c7.582,2.883,15.072,2.664,22.46-0.657c7.389-3.321,12.521-8.771,15.405-16.364C99.125,259.835,98.907,252.342,95.587,244.951z"/><path fill="#8AFF00" d="M343.377,439.492c2.881-7.585,2.663-15.078-0.657-22.469c-3.319-7.393-8.775-12.529-16.357-15.412 c-7.593-2.885-15.072-2.662-22.46,0.658c-7.389,3.321-12.524,8.779-15.405,16.364c-2.884,7.595-2.662,15.078,0.657,22.469 c3.32,7.393,8.767,12.525,16.357,15.411c7.582,2.883,15.072,2.663,22.461-0.657C335.36,452.535,340.493,447.087,343.377,439.492z"/><path fill="#8AFF00" d="M420.523,212.144c-3.32-7.392-8.776-12.529-16.357-15.411c-7.593-2.886-15.072-2.663-22.461,0.658 c-7.388,3.321-12.524,8.779-15.404,16.364c-2.885,7.595-2.663,15.078,0.657,22.469c3.32,7.392,8.766,12.526,16.358,15.411 c7.581,2.882,15.07,2.664,22.46-0.658c7.389-3.321,12.521-8.769,15.404-16.364C424.062,227.028,423.844,219.535,420.523,212.144z"/><path fill="#8AFF00" d="M394.628,427.557c-7.592-2.885-15.071-2.663-22.46,0.658s-12.524,8.78-15.405,16.364 c-2.884,7.596-2.662,15.078,0.658,22.47s8.766,12.525,16.357,15.41c7.582,2.882,15.071,2.664,22.461-0.657 c7.388-3.32,12.521-8.77,15.404-16.364c2.881-7.585,2.662-15.077-0.657-22.47C407.666,435.577,402.21,430.438,394.628,427.557z"/><path fill="#8AFF00" d="M178.516,173.801c7.582,2.881,15.072,2.663,22.461-0.658c7.388-3.321,12.521-8.77,15.404-16.364 c2.881-7.585,2.663-15.078-0.657-22.469c-3.32-7.392-8.776-12.53-16.358-15.411c-7.592-2.886-15.072-2.664-22.46,0.658 c-7.389,3.321-12.525,8.779-15.405,16.364c-2.884,7.595-2.662,15.077,0.658,22.469 C165.478,165.781,170.924,170.915,178.516,173.801z"/><path fill="#8AFF00" d="M259.705,429.912c7.389-3.321,12.521-8.771,15.404-16.364c2.882-7.585,2.662-15.078-0.656-22.47 c-3.32-7.391-8.776-12.529-16.358-15.41c-7.592-2.886-15.072-2.664-22.46,0.657c-7.389,3.321-12.525,8.78-15.405,16.364 c-2.885,7.596-2.662,15.078,0.657,22.47c3.32,7.391,8.767,12.524,16.358,15.411C244.827,433.451,252.317,433.233,259.705,429.912z"/></g><g><path fill="#8AFF00" d="M317.442,507.785c2.881-7.584,2.663-15.077-0.657-22.469c-3.32-7.391-8.776-12.529-16.358-15.411 c-7.592-2.886-15.071-2.663-22.46,0.657c-7.389,3.321-12.525,8.78-15.404,16.364c-2.886,7.597-2.663,15.078,0.658,22.47 c1.935,4.31,4.615,7.827,7.999,10.604h37.555C312.637,516.853,315.539,512.796,317.442,507.785z"/><path fill="#8AFF00" d="M385.051,511.262c-3.319-7.392-8.775-12.53-16.357-15.411c-7.593-2.886-15.072-2.663-22.46,0.658 c-7.39,3.321-12.524,8.779-15.405,16.364c-0.906,2.387-1.505,4.762-1.798,7.127h58.488 C387.17,517.072,386.353,514.159,385.051,511.262z"/><path fill="#8AFF00" d="M154.316,501.721c-3.319-7.392-8.776-12.53-16.358-15.411c-7.592-2.886-15.072-2.663-22.46,0.657 c-7.388,3.322-12.524,8.78-15.405,16.365c-2.132,5.614-2.562,11.168-1.302,16.668h57.459 C157.667,513.843,157.024,507.748,154.316,501.721z"/><path fill="#8AFF00" d="M206.226,512.254c-7.593-2.886-15.072-2.663-22.46,0.658c-3.912,1.758-7.173,4.134-9.821,7.088h43.716 C214.628,516.593,210.824,514.002,206.226,512.254z"/></g></g></svg>